<svg xmlns="http://www.w3.org/2000/svg" xmlns:xlink="http://www.w3.org/1999/xlink" version="1.1" width="1000" height="1000" viewBox="0 0 1000 1000" xml:space="preserve">
<desc>Created with Fabric.js 3.5.0</desc>
<defs>
</defs>
<rect x="0" y="0" width="100%" height="100%" fill="rgba(255,255,255,0)"/>
<g transform="matrix(2.2069 0 0 2.2069 499.9946 499.9955)" id="918081">
<path style="stroke: none; stroke-width: 1; stroke-dasharray: none; stroke-linecap: butt; stroke-dashoffset: 0; stroke-linejoin: miter; stroke-miterlimit: 4; is-custom-font: none; font-file-url: none; fill: rgb(255,255,255); fill-rule: nonzero; opacity: 1;" vector-effect="non-scaling-stroke" transform=" translate(-224, -248)" d="M 0 88 C 0 74.75 10.75 64 24 64 H 424 C 437.3 64 448 74.75 448 88 C 448 101.3 437.3 112 424 112 H 24 C 10.75 112 0 101.3 0 88 z M 0 248 C 0 234.7 10.75 224 24 224 H 424 C 437.3 224 448 234.7 448 248 C 448 261.3 437.3 272 424 272 H 24 C 10.75 272 0 261.3 0 248 z M 424 432 H 24 C 10.75 432 0 421.3 0 408 C 0 394.7 10.75 384 24 384 H 424 C 437.3 384 448 394.7 448 408 C 448 421.3 437.3 432 424 432 z" stroke-linecap="round"/>
</g>
</svg>