<svg xmlns="http://www.w3.org/2000/svg" xmlns:xlink="http://www.w3.org/1999/xlink" version="1.1" width="1000" height="1000" viewBox="0 0 1000 1000" xml:space="preserve">
<desc>Created with Fabric.js 3.5.0</desc>
<defs>
</defs>
<rect x="0" y="0" width="100%" height="100%" fill="rgba(255,255,255,0)"/>
<g transform="matrix(1.8721 0 0 1.8721 500.0105 500.0102)" id="244767">
<path style="stroke: none; stroke-width: 1; stroke-dasharray: none; stroke-linecap: butt; stroke-dashoffset: 0; stroke-linejoin: miter; stroke-miterlimit: 4; is-custom-font: none; font-file-url: none; fill: rgb(0,162,197); fill-rule: nonzero; opacity: 1;" vector-effect="non-scaling-stroke" transform=" translate(-288.1475, -255.9929)" d="M 381.2 150.3 L 524.9 171.5 C 536.8 173.2 546.8 181.6 550.6 193.1 C 554.4 204.7 551.3 217.3 542.7 225.9 L 438.5 328.1 L 463.1 474.7 C 465.1 486.7 460.2 498.9 450.2 506 C 440.3 513.1 427.2 514 416.5 508.3 L 288.1 439.8 L 159.8 508.3 C 149 514 135.9 513.1 126 506 C 116.1 498.9 111.1 486.7 113.2 474.7 L 137.8 328.1 L 33.58 225.9 C 24.97 217.3 21.91 204.7 25.69 193.1 C 29.46 181.6 39.43 173.2 51.42 171.5 L 195 150.3 L 259.4 17.97 C 264.7 6.954 275.9 -0.0391 288.1 -0.0391 C 300.4 -0.0391 311.6 6.954 316.9 17.97 L 381.2 150.3 z" stroke-linecap="round"/>
</g>
</svg>