<svg xmlns="http://www.w3.org/2000/svg" width="1000" height="1000"><rect width="100%" height="100%" fill="rgba(255,255,255,0)"/><path style="is-custom-font:none;font-file-url:none" vector-effect="non-scaling-stroke" d="M5.649 146.892c0-29.242 23.724-52.966 52.966-52.966h882.76c29.351 0 52.965 23.724 52.965 52.966 0 29.351-23.614 52.965-52.965 52.965H58.615c-29.242 0-52.966-23.614-52.966-52.965zm0 353.104c0-29.352 23.724-52.966 52.966-52.966h882.76c29.351 0 52.965 23.614 52.965 52.966 0 29.351-23.614 52.965-52.965 52.965H58.615c-29.242 0-52.966-23.614-52.966-52.965zm935.726 406.07H58.615c-29.242 0-52.966-23.615-52.966-52.967 0-29.351 23.724-52.965 52.966-52.965h882.76c29.351 0 52.965 23.614 52.965 52.966 0 29.351-23.614 52.965-52.965 52.965z" fill="#fff"/></svg>