<svg xmlns="http://www.w3.org/2000/svg" width="1000" height="1000"><rect width="100%" height="100%" fill="rgba(255,255,255,0)"/><path style="is-custom-font:none;font-file-url:none" vector-effect="non-scaling-stroke" d="M888.58 5.42H111.398A105.98 105.98 0 005.419 111.398v777.18A105.98 105.98 0 00111.4 994.56h303.034V658.273H275.335V499.99h139.098v-120.64c0-137.22 81.692-213.018 206.814-213.018 59.922 0 122.582 10.686 122.582 10.686V311.7h-69.04c-68.026 0-89.244 42.215-89.244 85.512V499.99h151.86l-24.287 158.284H585.545V994.56H888.58a105.98 105.98 0 00105.98-105.98V111.4a105.98 105.98 0 00-105.98-105.98z" fill="#fff"/></svg>