<svg xmlns="http://www.w3.org/2000/svg" xmlns:xlink="http://www.w3.org/1999/xlink" version="1.1" width="1000" height="1000" viewBox="0 0 1000 1000" xml:space="preserve">
<desc>Created with Fabric.js 3.5.0</desc>
<defs>
</defs>
<rect x="0" y="0" width="100%" height="100%" fill="rgba(255,255,255,0)"/>
<g transform="matrix(2.2079 0 0 2.2079 499.989 499.989)" id="122793">
<path style="stroke: none; stroke-width: 1; stroke-dasharray: none; stroke-linecap: butt; stroke-dashoffset: 0; stroke-linejoin: miter; stroke-miterlimit: 4; is-custom-font: none; font-file-url: none; fill: rgb(255,255,255); fill-rule: nonzero; opacity: 1;" vector-effect="non-scaling-stroke" transform=" translate(-224, -256)" d="M 400 32 H 48 A 48 48 0 0 0 0 80 v 352 a 48 48 0 0 0 48 48 h 137.25 V 327.69 h -63 V 256 h 63 v -54.64 c 0 -62.15 37 -96.48 93.67 -96.48 c 27.14 0 55.52 4.84 55.52 4.84 v 61 h -31.27 c -30.81 0 -40.42 19.12 -40.42 38.73 V 256 h 68.78 l -11 71.69 h -57.78 V 480 H 400 a 48 48 0 0 0 48 -48 V 80 a 48 48 0 0 0 -48 -48 z" stroke-linecap="round"/>
</g>
</svg>