<svg xmlns="http://www.w3.org/2000/svg" width="1000" height="1000"><rect width="100%" height="100%" fill="rgba(0,0,0,0)"/><path style="is-custom-font:none;font-file-url:none" vector-effect="non-scaling-stroke" d="M888.59 5.43H111.41C52.9 5.43 5.43 52.9 5.43 111.41v777.18c0 58.51 47.47 105.98 105.98 105.98h777.18c58.51 0 105.98-47.47 105.98-105.98V111.41c0-58.51-47.47-105.98-105.98-105.98zM617.68 852.601c-18.546 3.312-25.39-8.169-25.39-17.663 0-11.923.441-72.86.441-122.097 0-34.443-11.48-56.301-24.949-67.782 81.692-9.053 167.8-20.313 167.8-161.398 0-40.184-14.35-60.276-37.755-86.108 3.754-9.494 16.339-48.574-3.753-99.355-30.69-9.494-100.901 39.521-100.901 39.521-29.144-8.17-60.717-12.364-91.849-12.364-31.131 0-62.704 4.195-91.848 12.364 0 0-70.212-49.015-100.901-39.521-20.092 50.56-7.728 89.64-3.754 99.355-23.403 25.832-34.443 45.924-34.443 86.108 0 140.423 82.355 152.345 164.047 161.398-10.598 9.494-20.092 25.832-23.404 49.236-20.975 9.494-74.627 25.832-106.641-30.69-20.092-34.885-56.302-37.755-56.302-37.755-35.768-.442-2.428 22.52-2.428 22.52 23.845 11.04 40.625 53.432 40.625 53.432 21.417 65.574 123.863 43.495 123.863 43.495 0 30.69.442 80.589.442 89.641 0 9.494-6.624 20.975-25.391 17.663-145.722-48.794-247.727-187.45-247.727-349.51 0-202.686 154.995-356.576 357.68-356.576s366.953 153.89 366.953 356.576c.221 162.06-98.693 300.936-244.414 349.51zM401.087 717.7c-4.195.883-8.17-.884-8.611-3.754-.442-3.312 2.429-6.182 6.624-7.065 4.195-.442 8.169 1.325 8.61 4.195.663 2.87-2.208 5.74-6.623 6.624zm-20.975-1.988c0 2.87-3.312 5.3-7.728 5.3-4.857.441-8.17-1.988-8.17-5.3 0-2.87 3.313-5.299 7.728-5.299 4.195-.441 8.17 1.988 8.17 5.3zm-30.249-2.428c-.883 2.87-5.299 4.195-9.052 2.87-4.195-.883-7.065-4.195-6.182-7.065s5.299-4.195 9.052-3.312c4.416 1.325 7.286 4.636 6.182 7.507zm-27.157-11.923c-1.987 2.429-6.182 1.987-9.494-1.325-3.312-2.87-4.195-7.065-1.987-9.052 1.987-2.429 6.182-1.987 9.494 1.325 2.87 2.87 3.974 7.286 1.987 9.052zm-20.092-20.092c-1.987 1.325-5.74 0-8.169-3.312s-2.429-7.065 0-8.61c2.429-1.988 6.182-.442 8.17 2.87 2.428 3.312 2.428 7.286 0 9.052zm-14.351-21.416c-1.987 1.987-5.299.883-7.728-1.325-2.428-2.87-2.87-6.182-.883-7.728 1.987-1.987 5.3-.883 7.728 1.325 2.429 2.87 2.87 6.182.883 7.728zm-14.793-16.339c-.883 1.987-3.753 2.429-6.182.883-2.87-1.324-4.195-3.753-3.312-5.74.883-1.325 3.312-1.987 6.182-.883 2.87 1.545 4.195 3.974 3.312 5.74z" fill="#fff"/></svg>