<svg xmlns="http://www.w3.org/2000/svg" width="1000" height="1000"><rect width="100%" height="100%" fill="rgba(255,255,255,0)"/><g><rect style="is-custom-font:none;font-file-url:none" x="-50" y="-50" rx="0" ry="0" width="100" height="100" fill="none" transform="matrix(-.9091 0 0 -.9091 909.09 909.09)"/><path style="is-custom-font:none;font-file-url:none" vector-effect="non-scaling-stroke" d="M131.905 390.834L454.44 68.3c12.499-12.7 29.028-18.949 45.558-18.949s33.02 6.3 45.599 18.898L868.13 390.783c25.198 25.199 25.198 66.02 0 91.218s-66.019 25.197-91.217 0L564.504 269.48v618.458c0 35.66-28.887 62.694-62.692 62.694S435.49 923.6 435.49 887.939V269.48L223.02 481.95c-25.197 25.198-66.018 25.198-91.216 0s-25.097-65.918.1-91.116z" fill="#10eb4e"/></g></svg>