<svg xmlns="http://www.w3.org/2000/svg" width="1000" height="1000"><rect width="100%" height="100%" fill="rgba(255,255,255,0)"/><path style="is-custom-font:none;font-file-url:none" vector-effect="non-scaling-stroke" d="M454.075 972.476c-101.137-124.388-326.08-425.863-326.08-595.2 0-205.453 166.547-372 372-372 205.374 0 372 166.547 372 372 0 169.337-226.688 470.812-326.082 595.2-23.831 29.643-68.006 29.643-91.838 0zm45.92-471.2c68.393 0 124-55.607 124-124 0-68.394-55.607-124-124-124-68.395 0-124 55.606-124 124 0 68.393 55.605 124 124 124z" fill="#fff"/></svg>