<svg xmlns="http://www.w3.org/2000/svg" width="1000" height="1000"><rect width="100%" height="100%" fill="rgba(0,0,0,0)"/><path style="is-custom-font:none;font-file-url:none" vector-effect="non-scaling-stroke" d="M284.474 219.226c-154.006 0-278.854 125.71-278.854 280.767S130.477 780.76 284.474 780.76 563.33 655.06 563.33 499.993 438.487 219.226 284.474 219.226zm445.318 16.447c-77.006 0-139.42 118.369-139.42 264.325s62.424 264.332 139.43 264.332S869.23 645.962 869.23 499.998h-.01c0-145.998-62.415-264.325-139.425-264.325zm215.523 27.532c-27.076 0-49.028 106.023-49.028 236.793s21.938 236.793 49.028 236.793 49.041-106.051 49.041-236.798c0-130.774-21.96-236.788-49.038-236.788z" fill="#fff"/></svg>