<svg xmlns="http://www.w3.org/2000/svg" xmlns:xlink="http://www.w3.org/1999/xlink" version="1.1" width="1000" height="1000" viewBox="0 0 1000 1000" xml:space="preserve">
<desc>Created with Fabric.js 3.5.0</desc>
<defs>
</defs>
<rect x="0" y="0" width="100%" height="100%" fill="rgba(255,255,255,0)"/>
<g transform="matrix(1.9316 0 0 1.9316 500.0071 500.0088)" id="941355">
<path style="stroke: none; stroke-width: 1; stroke-dasharray: none; stroke-linecap: butt; stroke-dashoffset: 0; stroke-linejoin: miter; stroke-miterlimit: 4; is-custom-font: none; font-file-url: none; fill: rgb(0,162,197); fill-rule: nonzero; opacity: 1;" vector-effect="non-scaling-stroke" transform=" translate(-228.6475, -256.0179)" d="M 288 439.8 L 159.8 508.3 C 149 514 135.9 513.1 126 506 C 116.1 498.9 111.1 486.7 113.2 474.7 L 137.8 328.1 L 33.58 225.9 C 24.97 217.3 21.91 204.7 25.69 193.1 C 29.46 181.6 39.43 173.2 51.42 171.5 L 195 150.3 L 259.4 17.97 C 264.7 6.995 275.8 0.0131 287.1 -0.0391 L 288 439.8 z M 433.2 512 C 432.1 512.1 431 512.1 429.9 512 H 433.2 z" stroke-linecap="round"/>
</g>
</svg>