<svg xmlns="http://www.w3.org/2000/svg" width="1000" height="1000"><rect width="100%" height="100%" fill="rgba(255,255,255,0)"/><path style="is-custom-font:none;font-file-url:none" vector-effect="non-scaling-stroke" d="M674.214 302.143l269.02 39.688c22.279 3.183 41 18.908 48.114 40.437 7.114 21.717 1.31 45.305-14.79 61.405L781.485 635.002l46.054 274.45c3.744 22.465-5.429 45.305-24.15 58.596-18.534 13.292-43.058 14.977-63.09 4.306L499.922 844.115l-240.19 128.24c-20.22 10.67-44.744 8.985-63.278-4.307-18.534-13.291-27.894-36.131-23.963-58.596l46.054-274.45-195.11-191.329c-16.12-16.1-21.848-39.688-14.771-61.405 7.058-21.529 25.722-37.254 48.169-40.437l268.796-39.688L446.192 54.408c9.922-20.624 30.89-33.715 53.73-33.715 23.026 0 43.994 13.091 53.916 33.715l120.376 247.735z" fill="#00a2c5"/></svg>