<svg xmlns="http://www.w3.org/2000/svg" width="1000" height="1000"><rect width="100%" height="100%" fill="rgba(255,255,255,0)"/><path style="is-custom-font:none;font-file-url:none" vector-effect="non-scaling-stroke" d="M888.58 5.42H111.398c-58.51 0-105.98 47.47-105.98 105.979v777.18c0 58.51 47.47 105.98 105.98 105.98h777.18c58.51 0 105.98-47.47 105.98-105.98V111.4c0-58.51-47.47-105.98-105.98-105.98zM780.612 356.033c.442 6.182.442 12.585.442 18.767 0 191.425-145.722 411.994-411.994 411.994-82.134 0-158.307-23.845-222.336-64.912 11.702 1.325 22.962 1.766 34.885 1.766 67.782 0 130.045-22.962 179.723-61.82-63.588-1.326-117.019-43.055-135.344-100.46 22.3 3.311 42.391 3.311 65.353-2.65-66.237-13.468-115.914-71.757-115.914-142.189v-1.766c19.208 10.819 41.729 17.442 65.354 18.326a144.5 144.5 0 01-64.471-120.552c0-26.936 7.065-51.665 19.65-73.081 71.315 87.874 178.398 145.28 298.508 151.462-20.533-98.252 52.99-177.957 141.306-177.957 41.73 0 79.263 17.442 105.758 45.704 32.677-6.183 64.03-18.326 91.849-34.885-10.819 33.56-33.56 61.82-63.588 79.705 29.145-3.091 57.406-11.26 83.459-22.52-19.65 28.923-44.379 54.534-72.64 75.068z" fill="#fff"/></svg>