<svg xmlns="http://www.w3.org/2000/svg" width="1000" height="1000"><rect width="100%" height="100%" fill="rgba(255,255,255,0)"/><path style="is-custom-font:none;font-file-url:none" vector-effect="non-scaling-stroke" d="M893.937 298.007c.63 8.81.63 17.621.63 26.43 0 268.701-204.514 578.307-578.307 578.307-115.158 0-222.135-33.353-312.122-91.244 16.362 1.887 32.092 2.516 49.083 2.516 95.02 0 182.49-32.092 252.341-86.84-89.358-1.888-164.242-60.41-190.043-140.959 12.587 1.887 25.171 3.146 38.388 3.146 18.248 0 36.498-2.518 53.488-6.92C114.262 563.562 44.41 481.756 44.41 382.96v-2.516c27.058 15.103 58.524 24.542 91.874 25.799-54.748-36.499-90.615-98.797-90.615-169.276 0-37.756 10.067-72.367 27.687-102.572 100.056 123.338 250.455 203.884 419.1 212.696-3.146-15.103-5.035-30.833-5.035-46.566 0-112.013 90.617-203.257 203.257-203.257 58.523 0 111.382 24.542 148.51 64.187 45.936-8.81 89.985-25.801 129.002-49.084-15.104 47.197-47.197 86.841-89.357 112.01 40.903-4.402 80.548-15.731 117.045-31.462-27.684 40.272-62.296 76.14-101.94 105.088z" fill="#fff"/></svg>